<?xml version="1.0" encoding="UTF-8" standalone="no"?>
<svg
   xmlns:svg="http://www.w3.org/2000/svg"
   xmlns="http://www.w3.org/2000/svg"
   version="1.0"
   width="88"
   height="88"
   viewBox="0 0 88 88"
   id="VegasTarget">

  <!--Background Color (Might Remove)-->
  <rect width="88" height="88" fill="#bdbdbd" id="Background"/>

  <!--Target 1-->
  <circle cx="44" cy="24" r="19.9" fill="#41b7c8" stroke="black" stroke-width="0.1" id="Target1Zone6" />
  <circle cx="44" cy="24" r="15.9" fill="#fd1b14" stroke="black" stroke-width="0.1" id="Target1Zone7" />
  <circle cx="44" cy="24" r="11.9" fill="#fd1b14" stroke="black" stroke-width="0.1" id="Target1Zone8" />
  <circle cx="44" cy="24" r="7.9" fill="#fff535" stroke="black" stroke-width="0.1" id="Target1Zone9" />
  <circle cx="44" cy="24" r="3.9" fill="#fff535" stroke="black" stroke-width="0.1" id="Target1Zone10" />
  <circle cx="44" cy="24" r="1.9" fill="#fff535" stroke="black" stroke-width="0.07" id="Target1Zone10X" />
  <path d="M 43 24 L 45 24 M 44 23 L 44 25" stroke="black" stroke-width="0.3" transform="rotate(-45 44 24)" id="Taget1Center" />

  <!--Target 2-->
  <circle cx="23" cy="61" r="19.9" fill="#41b7c8" stroke="black" stroke-width="0.1" id="Target2Zone6" />
  <circle cx="23" cy="61" r="15.9" fill="#fd1b14" stroke="black" stroke-width="0.1" id="Target2Zone7" />
  <circle cx="23" cy="61" r="11.9" fill="#fd1b14" stroke="black" stroke-width="0.1" id="Target2Zone8" />
  <circle cx="23" cy="61" r="7.9" fill="#fff535" stroke="black" stroke-width="0.1" id="Target2Zone9" />
  <circle cx="23" cy="61" r="3.9" fill="#fff535" stroke="black" stroke-width="0.1" id="Target2Zone10" />
  <circle cx="23" cy="61" r="1.9" fill="#fff535" stroke="black" stroke-width="0.07" id="Target2Zone10X" />
  <path d="M 22 61 L 24 61 M 23 60 L 23 62" stroke="black" stroke-width="0.3" transform="rotate(-45 23 61)" id="Taget2Center" />

  <!--Target 3-->
  <circle cx="65" cy="61" r="19.9" fill="#41b7c8" stroke="black" stroke-width="0.1" id="Target3Zone6" />
  <circle cx="65" cy="61" r="15.9" fill="#fd1b14" stroke="black" stroke-width="0.1" id="Target3Zone7" />
  <circle cx="65" cy="61" r="11.9" fill="#fd1b14" stroke="black" stroke-width="0.1" id="Target3Zone8" />
  <circle cx="65" cy="61" r="7.9" fill="#fff535" stroke="black" stroke-width="0.1" id="Target3Zone9" />
  <circle cx="65" cy="61" r="3.9" fill="#fff535" stroke="black" stroke-width="0.1" id="Target3Zone10" />
  <circle cx="65" cy="61" r="1.9" fill="#fff535" stroke="black" stroke-width="0.07" id="Target3Zone10X" />
  <path d="M 64 61 L 66 61 M 65 60 L 65 62" stroke="black" stroke-width="0.3" transform="rotate(-45 65 61)" id="Taget3Center" />
</svg>
